<svg width="82" height="82" viewBox="0 0 82 82" fill="none" xmlns="http://www.w3.org/2000/svg">
<rect width="82" height="82" rx="41" fill="#7A7A7A"/>
<path d="M31.4316 60.291C27.778 60.5306 26.056 58.8535 26.2656 55.2598V29.1602C26.2656 27.3633 26.7148 26.0306 27.6133 25.1621C28.332 24.4733 29.5 24.1289 31.1172 24.1289H51.377C53.1439 24.1289 54.4766 24.5781 55.375 25.4766C56.0638 26.1654 56.4082 27.3333 56.4082 28.9805V55.2598C56.528 57.0566 56.1686 58.3743 55.3301 59.2129C54.5215 60.0514 53.2038 60.4108 51.377 60.291H31.4316ZM30.2188 53.8223C30.2188 54.9004 30.3984 55.6191 30.7578 55.9785C31.1471 56.3379 31.8809 56.5176 32.959 56.5176H49.7598C50.8379 56.5176 51.5566 56.3379 51.916 55.9785C52.2754 55.6191 52.4551 54.9004 52.4551 53.8223V43.7598H30.2188V53.8223ZM52.4551 39.9863V30.5527C52.4551 29.5046 52.2754 28.8008 51.916 28.4414C51.5566 28.082 50.8379 27.9023 49.7598 27.9023H32.8691C31.821 27.9023 31.1172 28.082 30.7578 28.4414C30.3984 28.8008 30.2188 29.5345 30.2188 30.6426V39.9863H52.4551Z" fill="white"/>
</svg>
